<?xml version="1.0" encoding="iso-8859-1"?>
<!-- Generator: Adobe Illustrator 18.0.0, SVG Export Plug-In . SVG Version: 6.00 Build 0)  -->
<!DOCTYPE svg PUBLIC "-//W3C//DTD SVG 1.1//EN" "http://www.w3.org/Graphics/SVG/1.1/DTD/svg11.dtd">
<svg version="1.1" id="Layer" xmlns="http://www.w3.org/2000/svg" xmlns:xlink="http://www.w3.org/1999/xlink" x="0px" y="0px"
	 viewBox="0 0 799 518" style="enable-background:new 0 0 799 518;" xml:space="preserve">
<path style="fill-rule:evenodd;clip-rule:evenodd;fill:#25A14B;" d="M606.06,383c0-0.07-0.02-0.13-0.02-0.2l7.17-3.59
	c0.61,0.52,1.39,0.85,2.26,0.85c1.95,0,3.53-1.58,3.53-3.53s-1.58-3.53-3.53-3.53c-1.95,0-3.53,1.58-3.53,3.53
	c0,0.07,0.02,0.13,0.02,0.2l-7.17,3.58c-0.61-0.52-1.39-0.84-2.26-0.84c-1.95,0-3.53,1.58-3.53,3.53s1.58,3.53,3.53,3.53
	c0.87,0,1.65-0.33,2.26-0.84l7.17,3.58c0,0.07-0.02,0.13-0.02,0.2c0,1.95,1.58,3.53,3.53,3.53c1.95,0,3.53-1.58,3.53-3.53
	s-1.58-3.53-3.53-3.53c-0.87,0-1.65,0.32-2.26,0.84l-7.17-3.58C606.04,383.13,606.06,383.07,606.06,383z M610,399
	c-8.84,0-16-7.16-16-16s7.16-16,16-16s16,7.16,16,16S618.84,399,610,399z"/>
<path style="fill-rule:evenodd;clip-rule:evenodd;fill:#EB7323;" d="M542,373v3.52c0,0,12.98,0.92,13.78,14.4h3.34
	C559.12,390.92,560,374.09,542,373z M542,382.54c0,0,7.57,0.34,7.96,8.46h3.35c0,0,0.16-11.47-11.31-11.97V382.54z M544.5,391
	c1.38,0,2.5-1.12,2.5-2.5s-1.12-2.5-2.5-2.5s-2.5,1.12-2.5,2.5S543.12,391,544.5,391z M550,399c-8.84,0-16-7.16-16-16s7.16-16,16-16
	s16,7.16,16,16S558.84,399,550,399z"/>
<path style="fill-rule:evenodd;clip-rule:evenodd;fill:#1D8FDD;" d="M499,378.32l-4.89,3.83l2.73,4.34l-3.52-3.72l-3.3,2.58
	l-0.02-0.01l-0.02,0.01l-3.3-2.58l-3.52,3.72l2.73-4.34l-4.89-3.83V389h9h9V378.32z M497.92,377H490h-7.92
	c-0.33,0-0.61,0.15-0.81,0.39l8.71,6.83l0.02-0.02l0.02,0.02l8.71-6.83C498.53,377.15,498.25,377,497.92,377z M490,399
	c-8.84,0-16-7.16-16-16s7.16-16,16-16s16,7.16,16,16S498.84,399,490,399z"/>
<path style="fill-rule:evenodd;clip-rule:evenodd;fill:#6BAB35;" d="M433.91,375v3.33l0.44,8.18c0.64-0.02,1.58-0.01,2.22-0.01
	l0.43-8.2l0.01-3.29L433.91,375z M433.8,390.92h3.2v-2.98h-3.2V390.92z M430.98,375.01h-3.09v4.02h-4.9l0.01,5.92v5.97h3.06
	l-0.01-9.86h1.84l-0.01,7.05c0,0.36,0.03,0.71,0.07,1.06c0.14,1.01,0.47,1.53,1.46,1.71c1.08,0.21,2.43,0.1,3.52-0.01v-2.08h-0.91
	c-0.71-0.02-1.03-0.31-1.04-0.98v-6.69h1.95l0.01-2.14h-1.97L430.98,375.01z M423.01,375.01l-0.01,2.83h3.04v-2.83
	C425.14,375.02,423.91,375.02,423.01,375.01z M430,399c-8.84,0-16-7.16-16-16s7.16-16,16-16s16,7.16,16,16S438.84,399,430,399z"/>
<path style="fill-rule:evenodd;clip-rule:evenodd;fill:#F7EB19;" d="M379.8,387.78c-2.87-0.45-4.15-3.26-4.2-3.38l-0.01-0.01
	c-0.17-0.34-0.21-0.63-0.1-0.86c0.19-0.44,0.83-0.63,1.25-0.76l0.28-0.09c0.76-0.29,0.92-0.59,0.92-0.79
	c-0.01-0.21-0.2-0.42-0.51-0.52l0,0c-0.11-0.04-0.23-0.07-0.36-0.07c-0.08,0-0.2,0.01-0.31,0.06c-0.35,0.16-0.68,0.25-0.96,0.26
	c-0.32-0.01-0.48-0.14-0.52-0.17l0.03-0.51v-0.06c0.09-1.31,0.19-2.94-0.24-3.87c-1.3-2.79-4.06-3.01-4.87-3.01h-0.05h-0.36
	c-0.81,0-3.56,0.22-4.86,3.01c-0.43,0.93-0.33,2.56-0.24,3.87l0.03,0.57c-0.04,0.04-0.21,0.17-0.58,0.17
	c-0.29,0-0.63-0.09-1.01-0.26c-0.07-0.03-0.16-0.04-0.25-0.04c-0.33,0-0.75,0.21-0.81,0.51c-0.08,0.41,0.53,0.71,0.91,0.85
	l0.28,0.09c0.42,0.13,1.06,0.32,1.25,0.76c0.11,0.24,0.07,0.52-0.1,0.86l-0.01,0.01c-0.03,0.08-0.37,0.82-1.06,1.59
	c-0.9,1-1.95,1.6-3.14,1.79c-0.12,0.02-0.21,0.12-0.2,0.24c0,0.04,0.01,0.08,0.03,0.13c0.18,0.39,1.06,0.71,2.55,0.94
	c0.14,0.02,0.2,0.23,0.28,0.59c0.04,0.15,0.07,0.29,0.12,0.45c0.06,0.19,0.2,0.22,0.32,0.22c0.11,0,0.25-0.03,0.42-0.06
	c0.27-0.05,0.65-0.12,1.12-0.12c0.26,0,0.54,0.02,0.81,0.06c0.56,0.09,1.03,0.41,1.53,0.75c0.71,0.48,1.5,1.02,2.69,1.02h0.1h0.16
	c1.19,0,1.98-0.54,2.69-1.02c0.5-0.34,0.97-0.66,1.53-0.75c0.27-0.04,0.55-0.06,0.81-0.06c0.45,0,0.8,0.05,1.12,0.11
	c0.18,0.03,0.32,0.05,0.42,0.05h0.03c0.15,0,0.25-0.07,0.29-0.21c0.05-0.15,0.08-0.3,0.12-0.44c0.08-0.36,0.14-0.58,0.28-0.6
	c1.49-0.22,2.37-0.54,2.55-0.93c0.02-0.05,0.03-0.09,0.03-0.13C380.01,387.9,379.92,387.8,379.8,387.78z M370,399
	c-8.84,0-16-7.16-16-16s7.16-16,16-16s16,7.16,16,16S378.84,399,370,399z"/>
<path style="fill-rule:evenodd;clip-rule:evenodd;fill:#00B589;" d="M317,383.95c-0.44,0.1-0.87,0.15-1.25,0.15
	c-2.16,0-3.82-1.58-3.82-4.34c0-1.35,0.5-2.06,1.2-2.06c0.67,0,1.11,0.63,1.11,1.91c0,0.73-0.18,1.53-0.32,2
	c0,0,0.66,1.22,2.48,0.85c0.39-0.91,0.6-2.07,0.6-3.1c0-2.76-1.34-4.36-3.79-4.36c-2.52,0-3.99,2.04-3.99,4.72
	c0,2.66,1.18,4.95,3.13,5.99c-0.82,1.72-1.86,3.24-2.95,4.39c-1.97-2.51-3.76-5.86-4.49-12.4H302c1.35,10.89,5.35,14.35,6.41,15.02
	c0.6,0.38,1.12,0.36,1.67,0.03c0.86-0.51,3.44-3.23,4.88-6.41c0.6-0.01,1.32-0.08,2.04-0.25V383.95z M310,399c-8.84,0-16-7.16-16-16
	s7.16-16,16-16s16,7.16,16,16S318.84,399,310,399z"/>
<path style="fill-rule:evenodd;clip-rule:evenodd;fill:#414751;" d="M195,382.42v-1.59v-3.4c0-2.45-2-4.43-4.48-4.43h-1.04
	c-2.48,0-4.48,1.98-4.48,4.43v3.4v1.6v4.09c0,0.82,0.67,1.48,1.49,1.48H189v3.96c0,0.58,0.47,1.04,1.05,1.04s1.05-0.46,1.05-1.04
	V388h2.41c0.82,0,1.49-0.66,1.49-1.48V382.42z M190,399c-8.84,0-16-7.16-16-16s7.16-16,16-16s16,7.16,16,16S198.84,399,190,399z"/>
<path style="fill-rule:evenodd;clip-rule:evenodd;fill:#EF3321;" d="M606.61,332.13c-0.14,0.03-0.3,0.02-0.45,0.02l-2.37,0.01v-2.52
	l0.02-0.21h1.29c0.44,0,0.88-0.02,1.32,0.01c0.94,0.04,1.52,0.82,1.29,1.73C607.57,331.74,607.16,332.02,606.61,332.13z
	 M606.55,337.55c-0.87,0.04-1.75,0.01-2.63,0.01c-0.03,0-0.07-0.03-0.11-0.04v-2.95h1.15c0.57,0.01,1.14-0.02,1.7,0.05
	c0.89,0.1,1.38,0.7,1.36,1.51C608,336.95,607.46,337.5,606.55,337.55z M621.05,328.27v-1.25h-9.12v12.95h2.89v-5.69h5.13
	c0-0.71-0.01-1.28,0.01-1.96c0-0.26-0.06-0.35-0.33-0.34c-1.35,0.01-3.1,0-4.45,0h-0.34v-2.78h0.57c1.79,0,3.52-0.01,5.3,0
	c0.26,0.01,0.37-0.05,0.34-0.32C621.03,328.6,621.05,328.55,621.05,328.27z M610.78,335.81c-0.22-1.29-1-2.15-2.31-2.52
	c0.05-0.03,0.08-0.06,0.11-0.07c1.37-0.39,2.26-1.85,1.95-3.55c-0.27-1.5-1.55-2.61-3.18-2.64c-2.12-0.05-4.23-0.02-6.35-0.02V340
	c1.75,0,3.49,0,5.24-0.01c0.5,0,1,0,1.49-0.06C609.96,339.68,611.14,337.94,610.78,335.81z M610,349c-8.84,0-16-7.16-16-16
	s7.16-16,16-16s16,7.16,16,16S618.84,349,610,349z"/>
<path style="fill-rule:evenodd;clip-rule:evenodd;fill:#497FBF;" d="M558.19,324.95h-2.12c-2.22,0-4.03,2.07-4.03,4.62v1.42h-1.08
	h-1.5h-1.49v-1.42c0-0.91,0.55-1.57,1.04-1.57h2.09v-3.05h-2.09c-2.22,0-4.02,2.07-4.02,4.62v1.42H542v3.08h2.99v7.85h2.98v-7.85
	h1.49h1.5h1.08v7.85h2.99v-7.85h2.99v-3.08h-2.99v-1.42c0-0.91,0.55-1.57,1.04-1.57h2.12V324.95z M550,349c-8.84,0-16-7.16-16-16
	s7.16-16,16-16s16,7.16,16,16S558.84,349,550,349z"/>
<path style="fill-rule:evenodd;clip-rule:evenodd;fill:#E51937;" d="M497.71,332.58c-0.73-3.45-1.49-6.95-2.77-9.68
	c-0.15,0.02-0.31,0.15-0.45,0.15c-0.45,0-0.85,0.11-1.24,0.04c-0.38-0.06-0.76,0.31-1.2,0.31h-0.13c-0.11,0-0.22-0.43-0.27-0.46
	c-2.04,2.66-2.75,6.26-3.67,9.91c-0.52-0.86-0.99-1.75-1.45-2.66c-0.82-1.59-1.67-3.23-2.64-4.54c-0.26-0.02-0.53-0.03-0.78-0.03
	c-1.1,0-2.1,0.2-3.04,0.46l-0.05,2.45c-0.1,4.2-0.19,7.84,0.91,11.26c0.2,0.04,0.41,0.05,0.62,0.05c1.32,0,2.49-0.62,3-0.87
	c0.08-1.07-0.06-1.91-0.21-2.8c-0.07-0.46-0.15-0.92,0.1-1.52c0.77,0.96,1.44,2.01,2.11,3.06c0.43,0.66,0.85,1.32,1.18,1.89
	c0.22,0.02,0.43,0.03,0.63,0.03c0.52,0,0.97-0.06,1.43-0.12c0.47-0.06,0.94-0.12,1.47-0.12l0.31,0.11c0.61-1.3,0.64-3.21,0.67-5.05
	c0.03-1.69,0.06-3.44,0.84-4.75c0.86,3.79,2.02,7.46,3.55,11.24c0.54-0.07,1.14-0.25,1.69-0.42c0.41-0.12,0.78-0.24,1.08-0.24
	c0.15,0,0.28,0.07,0.38,0.14C498.87,338,498.28,335.26,497.71,332.58z M490,349c-8.84,0-16-7.16-16-16s7.16-16,16-16s16,7.16,16,16
	S498.84,349,490,349z"/>
<path style="fill-rule:evenodd;clip-rule:evenodd;fill:#EFCB07;" d="M435.53,329.58c-1.07,1.06-2.81,1.29-3.55,1.1
	c-0.84-0.22-0.71-0.91-0.65-1.17c-0.04-0.04-3.09-1.27-3.1-1.27c-2.83,1.87-2.49,6.74-2.49,6.9c-1.34,2.45-2.1,3.17-4.74,3.77
	l1.4,3.07c3.28-1.02,5.06-2.57,6.46-4.38c2.59,0.75,3.72,2.11,4.99,4.4c0,0,2.63-2,2.63-2.16c-1.21-2.51-3.02-3.89-5.15-5.01l0.05-1
	c3.16,0.75,5.62-1.76,5.62-1.76S435.82,330.02,435.53,329.58z M431.73,322c-1.59,0-2.88,1.29-2.88,2.87c0,1.59,1.29,2.87,2.88,2.87
	s2.88-1.28,2.88-2.87C434.61,323.29,433.32,322,431.73,322z M430,349c-8.84,0-16-7.16-16-16s7.16-16,16-16s16,7.16,16,16
	S438.84,349,430,349z"/>
<path style="fill-rule:evenodd;clip-rule:evenodd;fill:#D35911;" d="M376.71,337.35c-0.21,1.11-0.4,1.79-1.04,2.28
	c-1.48,1.09-4.71,0.91-6.5,0.91c-1.78,0-2.05-0.88-2.05-1.71v-4.76c0-0.67,0.22-0.9,0.65-0.9h3.98c1.96,0,2.2,1.09,2.36,1.73
	c0.17,0.65,1.01,0.51,1.01-0.09s-0.18-1.41-0.18-2.23c0-0.83,0.13-1.44,0.18-2.01c0.05-0.57-0.24-0.81-0.56-0.81
	s-0.5,0.02-0.53,0.63c-0.11,1.15-0.99,1.59-1.85,1.59h-4.47c-0.41,0-0.56-0.15-0.56-0.62c0-0.48-0.03-3.56-0.03-4.49
	c0-0.94,0.08-1.27,3.2-1.27c6.13,0,5.5,1.16,5.53,1.96c0.01,0.42,0.16,0.5,0.4,0.5c0.25,0,0.69-0.17,0.69-0.66
	c0-0.49-0.14-1.08-0.14-1.64c0-0.57,0.23-1,0.23-1.2s-0.1-0.55-0.58-0.56c-0.87,0-2.08,0.38-7.13,0.38c-2.43,0-6.05-0.11-6.4-0.11
	c-0.36,0-0.46,0.21-0.45,0.46c0.01,0.27-0.02,0.51,0.56,0.56c1.51,0.14,1.77,1.29,1.77,2.44v11.04c0,2.13-1.78,2.11-2.2,2.11
	c-0.42,0-0.6,0.21-0.6,0.5c0,0.28,0.1,0.42,0.6,0.42c1.34,0,9.34-0.05,11.65-0.05c2.32,0,2.1,0.25,2.63,0.25
	c0.62,0,0.47-0.85,0.47-1.48c0-0.76,0.56-1.94,0.6-2.49C378,336.85,376.82,336.84,376.71,337.35z M370,349c-8.84,0-16-7.16-16-16
	s7.16-16,16-16s16,7.16,16,16S378.84,349,370,349z"/>
<path style="fill-rule:evenodd;clip-rule:evenodd;fill:#036367;" d="M318.92,323.2c-0.08-0.13-0.22-0.2-0.4-0.2h-3.08
	c-0.45,0-0.65,0.3-0.81,0.6l-6.77,12.52l4.32,8.28c0.15,0.28,0.38,0.6,0.85,0.6h3.04c0.18,0,0.32-0.07,0.4-0.2
	c0.08-0.14,0.08-0.32,0-0.49l-4.29-8.18v-0.02l6.73-12.42C319,323.52,319,323.34,318.92,323.2z M306.55,327.94
	c-0.15-0.28-0.38-0.6-0.85-0.6h-3.04c-0.19,0-0.34,0.07-0.42,0.2c-0.08,0.14-0.07,0.31,0.02,0.49l2.06,3.71v0.02l-3.24,5.95
	c-0.08,0.18-0.08,0.35,0,0.49c0.08,0.13,0.22,0.21,0.4,0.21h3.04c0.46,0,0.68-0.32,0.83-0.61l3.29-6.06L306.55,327.94z M310,349
	c-8.84,0-16-7.16-16-16s7.16-16,16-16s16,7.16,16,16S318.84,349,310,349z"/>
<path style="fill-rule:evenodd;clip-rule:evenodd;fill:#FF5300;" d="M259.05,331.64c-0.41,0-0.79,0.1-1.14,0.28
	c-0.24-3.32-2.47-5.92-5.19-5.92c-0.67,0-1.32,0.16-1.89,0.44c-0.22,0.11-0.28,0.22-0.28,0.43v11.69c0,0.22,0.14,0.41,0.32,0.43
	l8.18,0.01c1.63,0,2.95-1.65,2.95-3.68C262,333.28,260.68,331.64,259.05,331.64z M250.27,327.27c0-0.23-0.15-0.41-0.33-0.41
	c-0.17,0-0.32,0.18-0.32,0.41l-0.14,8.29l0.14,3.01c0,0.22,0.15,0.4,0.32,0.4c0.18,0,0.33-0.18,0.33-0.4l0.14-3.01L250.27,327.27z
	 M249.24,327.96c0-0.21-0.14-0.38-0.3-0.38c-0.17,0-0.31,0.17-0.31,0.38l-0.11,7.6l0.11,3.05c0,0.21,0.14,0.38,0.31,0.38
	c0.16,0,0.3-0.17,0.3-0.38l0.13-3.05L249.24,327.96z M248.21,329.17c-0.01-0.2-0.13-0.35-0.29-0.35c-0.15,0-0.28,0.15-0.28,0.35
	l-0.13,6.39l0.13,3.08c0,0.19,0.13,0.35,0.28,0.35c0.16,0,0.28-0.16,0.29-0.36l0.14-3.07L248.21,329.17z M247.18,328.93
	c0-0.19-0.12-0.33-0.26-0.33c-0.15,0-0.26,0.14-0.27,0.33l-0.13,6.63l0.13,3.09c0.01,0.19,0.12,0.33,0.27,0.33
	c0.14,0,0.26-0.14,0.26-0.33l0.16-3.09L247.18,328.93z M246.16,328.75c0-0.17-0.11-0.3-0.24-0.3s-0.24,0.13-0.24,0.3l-0.15,6.81
	l0.15,3.12c0,0.17,0.11,0.3,0.24,0.3s0.24-0.13,0.24-0.3l0.17-3.12L246.16,328.75z M245.15,328.97c0-0.15-0.1-0.27-0.22-0.27
	c-0.12,0-0.22,0.12-0.22,0.27l-0.16,6.59l0.16,3.14c0,0.16,0.1,0.28,0.22,0.28c0.12,0,0.22-0.12,0.22-0.28l0.19-3.14L245.15,328.97z
	 M244.15,329.48c0-0.14-0.09-0.25-0.2-0.25s-0.2,0.11-0.2,0.25l-0.18,6.08l0.18,3.17c0,0.14,0.09,0.25,0.2,0.25s0.2-0.11,0.2-0.25
	l0.2-3.17L244.15,329.48z M243.16,330.61c-0.01-0.12-0.09-0.22-0.18-0.22c-0.1,0-0.18,0.1-0.18,0.22l-0.19,4.95l0.19,3.19
	c0,0.13,0.08,0.23,0.18,0.23c0.09,0,0.17-0.1,0.18-0.23l0.21-3.19L243.16,330.61z M242.17,332.51c0-0.11-0.07-0.19-0.16-0.19
	c-0.09,0-0.16,0.08-0.16,0.2l-0.2,3.04l0.2,3.19c0,0.12,0.07,0.2,0.16,0.2c0.09,0,0.16-0.08,0.16-0.2l0.23-3.19L242.17,332.51z
	 M241.19,332.28c0-0.1-0.06-0.17-0.14-0.17c-0.07,0-0.13,0.07-0.14,0.17l-0.21,3.28l0.21,3.17c0.01,0.09,0.07,0.17,0.14,0.17
	c0.08,0,0.14-0.08,0.14-0.17l0.24-3.17L241.19,332.28z M240.22,332.37c-0.01-0.09-0.06-0.15-0.12-0.15c-0.06,0-0.11,0.06-0.12,0.15
	l-0.22,3.19l0.22,3.07c0.01,0.08,0.06,0.15,0.12,0.15c0.06,0,0.11-0.07,0.12-0.15l0.26-3.07L240.22,332.37z M239.26,332.87
	c-0.01-0.07-0.05-0.12-0.1-0.12s-0.09,0.05-0.1,0.12l-0.24,2.68l0.24,2.63c0.01,0.07,0.05,0.12,0.1,0.12s0.09-0.04,0.1-0.12
	l0.27-2.63L239.26,332.87z M238.37,333.89c-0.01-0.07-0.05-0.12-0.1-0.12s-0.09,0.05-0.09,0.12l-0.18,1.66l0.18,1.64
	c0,0.07,0.04,0.12,0.09,0.12s0.09-0.05,0.1-0.12l0.21-1.64L238.37,333.89z M250,349c-8.84,0-16-7.16-16-16s7.16-16,16-16
	s16,7.16,16,16S258.84,349,250,349z"/>
<path style="fill-rule:evenodd;clip-rule:evenodd;fill:#43C1FB;" d="M194.07,348.46c-0.06-0.13-0.1-0.27-0.1-0.41
	c0-0.53,0.02-2.29,0.02-4.48c0-1.52-0.51-2.52-1.09-3.02c3.57-0.41,7.31-1.79,7.31-8.07c0-1.78-0.62-3.24-1.65-4.38
	c0.17-0.41,0.72-2.07-0.16-4.32c0,0-1.34-0.44-4.39,1.67c-1.28-0.36-2.65-0.54-4.01-0.55c-1.36,0.01-2.73,0.19-4,0.55
	c-3.06-2.11-4.4-1.67-4.4-1.67c-0.87,2.25-0.33,3.91-0.16,4.32c-1.02,1.14-1.65,2.6-1.65,4.38c0,6.27,3.74,7.67,7.29,8.08
	c-0.46,0.41-0.87,1.13-1.02,2.18c-0.91,0.42-3.23,1.14-4.65-1.35c0,0-0.85-1.57-2.45-1.69c0,0-1.57-0.02-0.11,1
	c0,0,1.05,0.5,1.77,2.39c0,0,0.94,3.17,5.39,2.19l0.02,2.77c0,0.14-0.04,0.28-0.1,0.41C179.07,346.65,174,340.43,174,333
	c0-8.84,7.16-16,16-16s16,7.16,16,16C206,340.43,200.93,346.65,194.07,348.46z"/>
<path style="fill-rule:evenodd;clip-rule:evenodd;fill:#FF4300;" d="M617.04,275.01c0.77,0,1.39,0.6,1.39,1.35s-0.62,1.35-1.39,1.35
	c-0.76,0-1.38-0.6-1.38-1.35S616.28,275.01,617.04,275.01z M600.9,283.56c-0.26-0.15-0.66-0.44-0.64-1.37c0-0.82,0.93-1.47,1.5-1.47
	c0.41-0.01,0.94,0.1,1.13,0.32C602.41,281.31,601.19,282.65,600.9,283.56z M613.43,283c-0.72,0-1.31,0.59-1.31,1.31
	c0,0.73,0.59,1.32,1.31,1.32c0.72,0,1.31-0.59,1.31-1.32C614.74,283.59,614.15,283,613.43,283z M606.89,287.51
	c-0.67-0.51-1.23,0.27-0.76,0.74c1.72,1.58,6.53,1.53,7.74,0.04c0.47-0.47-0.03-1.33-0.67-0.8
	C612.08,288.61,608.16,288.78,606.89,287.51z M606.6,283c-0.72,0-1.31,0.59-1.31,1.31c0,0.73,0.59,1.32,1.31,1.32
	c0.73,0,1.31-0.59,1.31-1.32C607.91,283.59,607.33,283,606.6,283z M610.06,290.9c-4.59,0-8.31-2.47-8.31-5.5
	c0-3.04,3.72-5.5,8.31-5.5s8.32,2.46,8.32,5.5C618.38,288.43,614.65,290.9,610.06,290.9z M619.16,283.56
	c-0.46-0.98-1.17-1.84-2.01-2.53c0.29-0.26,0.64-0.35,1.1-0.32c0.59,0.04,1.55,0.55,1.56,1.5
	C619.81,283.01,619.45,283.39,619.16,283.56z M620.17,280.49c-0.35-0.37-1.12-0.85-2.04-0.85c-0.97,0.06-1.25,0.23-1.94,0.77
	c-1.5-0.88-3.4-1.43-5.47-1.53c-0.02-0.58,0-3.44,2.31-3.11c0.62,0.01,1.29,0.34,1.61,0.53l-0.01,0.12c0,1.33,1.09,2.41,2.43,2.41
	c1.35,0,2.44-1.08,2.44-2.41c0-1.34-1.09-2.42-2.44-2.42c-0.93,0-1.74,0.53-2.14,1.3c-0.19-0.1-0.87-0.44-1.89-0.58
	c-3.31-0.39-3.42,3.34-3.41,4.13c-2.2,0.06-4.22,0.64-5.78,1.57c-0.04-0.03-0.79-0.76-1.95-0.76c-0.92,0.06-1.55,0.36-2.06,0.84
	c-0.51,0.57-0.83,1.19-0.75,2.16c0.21,1.29,1.33,1.89,1.51,1.98c-0.05,0.25-0.07,0.51-0.07,0.78c0,3.63,4.25,6.58,9.51,6.58
	c5.25,0,9.51-2.95,9.51-6.58c0-0.28-0.04-0.55-0.09-0.82l0.03,0.03c0.3-0.18,1.37-0.9,1.47-1.97
	C621,281.44,620.62,280.96,620.17,280.49z M610,299c-8.84,0-16-7.16-16-16s7.16-16,16-16s16,7.16,16,16S618.84,299,610,299z"/>
<path style="fill-rule:evenodd;clip-rule:evenodd;fill:#F74777;" d="M553.82,280.16h-3.77c-0.42,0-0.72,0.29-0.72,0.71v0.46
	c0,0.42,0.3,0.72,0.73,0.72h3.19c0.3,0,0.6,0.32,0.53,0.64l-0.4,2.07c-0.04,0.17-0.24,0.47-0.6,0.47h-2.61
	c-0.47,0-0.62,0.06-0.93,0.45c-0.32,0.39-3.18,3.8-3.18,3.8c-0.03,0.03-0.06,0.03-0.06-0.01v-11.9c0-0.27,0.23-0.59,0.59-0.59h7.76
	c0.29,0,0.56,0.27,0.48,0.62l-0.4,2.1C554.38,279.93,554.09,280.16,553.82,280.16z M555.41,275h-9.68c-1.34,0-1.73,1-1.73,1.62
	v15.26c0,0.7,0.38,0.97,0.6,1.05c0.21,0.09,0.81,0.16,1.16-0.25c0,0,4.57-5.25,4.65-5.33c0.12-0.12,0.12-0.12,0.24-0.12h2.95
	c1.25,0,1.45-0.88,1.58-1.4c0.07-0.28,0.63-3.1,1.11-5.53l0.61-3.01C557.21,275.8,556.83,275,555.41,275z M550,299
	c-8.84,0-16-7.16-16-16s7.16-16,16-16s16,7.16,16,16S558.84,299,550,299z"/>
<path style="fill-rule:evenodd;clip-rule:evenodd;fill:#1D6FED;" d="M501.3,279.05c-0.34,0-0.69-0.04-1.03-0.1
	c-1.35-0.25-2.58-0.81-3.76-1.47c-0.71-0.4-1.53-0.84-2.24-1.25c-0.3-0.17-0.34-0.14-0.34,0.2v3.46v3.3c0,0.28-0.04,0.56-0.1,0.84
	c-0.7,2.85-4.24,4.49-6.84,3.11c-1.35-0.71-1.93-2.13-1.44-3.57c0.82-2.46,3.28-4.06,5.97-3.11c0.39,0.14,0.39,0.13,0.39-0.28v-4.34
	c0-0.45,0-0.46-0.44-0.55c-1.4-0.28-2.58-0.29-3.98,0c-4.63,0.96-7.49,5.05-6.91,9.73c0.33,2.71,1.68,4.82,3.99,6.28
	c2.11,1.34,4.44,1.7,6.89,1.28c2.27-0.39,4.17-1.46,5.6-3.28c1.42-1.8,2.03-3.85,1.83-6.13c-0.02-0.29,0.05-0.45,0.35-0.55
	c0.81-0.25,1.49-0.73,2.03-1.38c0.36-0.42,0.67-0.89,0.71-1.47C502,279.3,501.77,279.06,501.3,279.05z M490,299
	c-8.84,0-16-7.16-16-16s7.16-16,16-16s16,7.16,16,16S498.84,299,490,299z"/>
<path style="fill-rule:evenodd;clip-rule:evenodd;fill:#77B921;" d="M423.83,284.58c0,0,2.57-0.7,5.82-0.41
	c3.26,0.3,5.99,1.87,5.99,1.87c0.9,0.47,0.22,1.78-0.68,1.31c0,0-2.42-1.29-5.45-1.66c-3.03-0.38-5.16,0.33-5.16,0.33
	C423.45,286.27,422.94,284.84,423.83,284.58z M423.6,280.87c0,0,2.84-0.84,6.48-0.6c3.63,0.24,6.72,1.93,6.72,1.93
	c1.02,0.5,0.29,1.98-0.73,1.47c0,0-2.73-1.37-6.12-1.71c-3.38-0.34-5.74,0.5-5.74,0.5C423.21,282.77,422.6,281.18,423.6,280.87z
	 M437.7,280.26c0,0-3.2-1.73-7.26-2.17c-4.05-0.44-6.96,0.6-6.96,0.6c-1.21,0.38-1.84-1.62-0.62-2c0,0,3.48-1.04,7.85-0.72
	s7.97,2.44,7.97,2.44C439.87,279.05,438.89,280.89,437.7,280.26z M430,271c-6.63,0-12,5.37-12,12c0,2.9,1.03,5.56,2.75,7.64
	c0.86-0.82,3.75-3.07,8.84-2.35c4.76,0.68,6.85,3.22,7.56,4.35c2.94-2.19,4.85-5.69,4.85-9.64C442,276.37,436.63,271,430,271z
	 M430,295c1.07,0,2.11-0.14,3.09-0.4c-0.32-0.7-1.26-1.92-3.85-2.43c-3-0.59-4.51,0.78-4.99,1.36C425.95,294.47,427.91,295,430,295z
	 M430,299c-8.84,0-16-7.16-16-16s7.16-16,16-16s16,7.16,16,16S438.84,299,430,299z"/>
<path style="fill-rule:evenodd;clip-rule:evenodd;fill:#630F6B;" d="M376.34,282.21l-0.01,4.97h2.73l0.94-4.97H376.34z
	 M377.24,279.4l-8.24-0.01l0.01,1.45h2.12l-3.26,3.71l-3.05-5.16h2.32l-0.01-1.39H358v1.4l3.15-0.01l4.19,7.08v2.82l-2.77-0.01V290
	h4.34h4.81l0.01-0.71H369v-2.83l4.89-5.63h3.35V279.4z M376.33,289.98h2.74v-2.09l-2.74,0.01V289.98z M370,299
	c-8.84,0-16-7.16-16-16s7.16-16,16-16s16,7.16,16,16S378.84,299,370,299z"/>
<path style="fill-rule:evenodd;clip-rule:evenodd;fill:#1D6199;" d="M306.01,280.63c-0.83,0-1.5-0.65-1.5-1.46
	c0-0.81,0.67-1.46,1.5-1.46c0.83,0,1.5,0.65,1.5,1.46C307.51,279.98,306.84,280.63,306.01,280.63z M316.79,280.63
	c-0.82,0-1.49-0.65-1.49-1.46c0-0.81,0.67-1.46,1.49-1.46c0.83,0,1.51,0.65,1.51,1.46C318.3,279.98,317.62,280.63,316.79,280.63z
	 M316.69,274c-2.67,0-4.88,1.91-5.25,4.41h-0.17c-0.38-2.5-2.59-4.41-5.26-4.41c-2.93,0-5.31,2.32-5.31,5.17
	c0,2.83,2.34,5.13,5.23,5.17h0.16v1.76l-6.09-1.6v6.87l6.09-1.78V292h8.95l-2.62-7.66h4.26h0.01c2.93,0,5.31-2.32,5.31-5.17
	C322,276.32,319.62,274,316.69,274z M310,299c-8.84,0-16-7.16-16-16s7.16-16,16-16s16,7.16,16,16S318.84,299,310,299z"/>
<path style="fill-rule:evenodd;clip-rule:evenodd;fill:#79C143;" d="M253.08,282.24c0.76,0,1.68,1.82,1.68,1.82l-2.79-0.39
	C251.97,283.67,252.32,282.24,253.08,282.24z M256.09,276.54c-1.21-1.03-3.3-1.03-3.3-1.03h-2.47c0,0-0.66-1.7-2.67-1.75
	c-1.42,0.03-1.8,0.16-1.8,1.26V278l-0.79,0.9c0,0-4.02,0-4.03,0.01c-1.13,1-1.08,2.43-1.08,2.43s0.07,7.17,3.81,7.74
	c0.01,0,4.15,0.81,4.56-1.43c0-0.45,0.03-2.33,0.03-2.33s1.56,2.28,2.98,2.17c0.15,0,2.95,0.13,2.95,2.1c0,1.98,0.02,1.82,0,2.01
	c-0.41,1.17-1.34,1.12-1.34,1.12c-0.94,0-0.95-0.02-2.19-0.02c-0.3-0.14-0.75-0.75-0.72-1.32c-0.08-1.27,1.69-0.98,1.69-0.98
	l-0.01-1.55c0,0-3.33-0.18-3.36,2.4c0.03,3.51,3.08,3.2,3.08,3.2l2.12,0.02c0,0,4.35-0.73,4.09-8.55
	C257.86,281.42,257.01,277.29,256.09,276.54z M244.99,273.76L240.8,278h3.33l0.86-0.78V273.76z M250,299c-8.84,0-16-7.16-16-16
	s7.16-16,16-16s16,7.16,16,16S258.84,299,250,299z"/>
<path style="fill-rule:evenodd;clip-rule:evenodd;fill:#0187F5;" d="M185.45,281.71h-2.98v-2.74h2.77c0.97,0,1.86,0.23,1.86,1.35
	C187.1,281.3,186.4,281.71,185.45,281.71z M185.6,286.87h-3.13v-3.21h3.18c1.16,0,1.87,0.47,1.87,1.67
	C187.52,286.54,186.67,286.87,185.6,286.87z M195.43,281.83c1.19,0,1.73,0.3,1.95,1.48h-3.98
	C193.43,282.65,193.88,281.83,195.43,281.83z M195.5,280.07c-2.7,0-4.57,1.93-4.57,4.47c0,2.63,1.76,4.46,4.57,4.46
	c2.02,0,3.59-1.05,4.28-3.05h-2.16c-0.15,0.53-1.05,1.3-2.03,1.3c-1.36,0-2.12-0.94-2.19-2.42h6.43
	C200,282.23,198.53,280.07,195.5,280.07z M198.16,277.79h-4.94v1.57h4.94V277.79z M188.05,282.41c1.07-0.49,1.67-1.29,1.67-2.44
	c0-2.18-1.58-2.97-3.93-2.97H180v11.77h5.96c2.23,0,4.35-1.02,4.35-3.39C190.31,283.92,189.55,282.82,188.05,282.41z M190,299
	c-8.84,0-16-7.16-16-16s7.16-16,16-16s16,7.16,16,16S198.84,299,190,299z"/>
<path style="fill-rule:evenodd;clip-rule:evenodd;fill:#516557;" d="M603.58,231.78l1.78,3.64l-3.98,1.08
	C601.38,236.5,600.23,233.95,603.58,231.78z M606.18,228.57l-0.22,0.04l-1.25-2.54l-3.72,0.42l1.52,3.1
	c-7.84,3.23-4.37,10.86-4.37,10.86l11.96-3.44l-3.29-6.67c5.89-1.69,10.82,1.77,10.82,1.77l-4.06,1.1l-1.17-2.17
	c-1.1-0.21-2.35-0.27-3.68-0.05l2.76,5.62l11.93-3.44C623.41,233.17,619.09,226.37,606.18,228.57z M609,249c-8.84,0-16-7.16-16-16
	s7.16-16,16-16s16,7.16,16,16S617.84,249,609,249z"/>
<path style="fill-rule:evenodd;clip-rule:evenodd;fill:#23678F;" d="M550.44,232.59h-2.38l1.08-4.92h2.49
	c1.25,0,2.08,1.09,1.72,2.46C553.04,231.5,551.74,232.59,550.44,232.59z M553.5,224h-8.66L541,242h5.08l1.25-5.96h3.63
	c3.48,0,6.38-2.19,7.16-5.91C559,225.91,556.04,224,553.5,224z M550,249c-8.84,0-16-7.16-16-16s7.16-16,16-16s16,7.16,16,16
	S558.84,249,550,249z"/>
<path style="fill-rule:evenodd;clip-rule:evenodd;fill:#21C9FB;" d="M490.54,240.25c-3.07,0.16-4.5-0.53-5.82-1.77
	c-1.47-1.39-0.88-2.98,0.32-3.06c1.19-0.08,1.91,1.37,2.55,1.77c0.64,0.4,3.07,1.32,4.35-0.16c1.4-1.61-0.93-2.44-2.63-2.69
	c-2.44-0.37-5.51-1.69-5.27-4.31c0.24-2.61,2.2-3.95,4.27-4.14c2.63-0.24,4.35,0.4,5.7,1.57c1.57,1.34,0.72,2.85-0.28,2.97
	c-0.99,0.12-2.11-2.21-4.3-2.25c-2.27-0.04-3.79,2.37-1,3.06c2.79,0.68,5.78,0.96,6.86,3.54
	C496.37,237.35,493.62,240.09,490.54,240.25z M499.3,233.1c0-5.35-4.32-9.68-9.66-9.68c-0.53,0-1.05,0.04-1.56,0.12
	c-0.9-0.59-1.98-0.94-3.15-0.94c-3.18,0-5.76,2.6-5.76,5.81c0,1.17,0.34,2.26,0.93,3.17c-0.08,0.5-0.12,1.01-0.12,1.52
	c0,5.36,4.32,9.69,9.66,9.69c0.6,0,1.19-0.05,1.76-0.16c0.88,0.56,1.93,0.88,3.05,0.88c3.18,0,5.76-2.6,5.76-5.82
	c0-1.21-0.36-2.34-1-3.27C499.27,233.99,499.3,233.55,499.3,233.1z M490.75,249c-8.84,0-16.75-6.97-16.75-15.87
	c0-8.91,7.16-16.13,16-16.13s16,7.22,16,16.13C506,242.03,499.59,249,490.75,249z"/>
<path style="fill:#EB4B1B;" d="M436.2,241.84c-2.85,0-5.17-2.3-5.19-5.15v-3.23l1.59,0.74l2.36-0.71v3.26
	c0,0.68,0.55,1.23,1.23,1.23s1.23-0.55,1.23-1.23v-3.32h3.98v3.22C441.4,239.52,439.07,241.84,436.2,241.84z M429.78,228.09
	c-0.68,0-1.23,0.55-1.23,1.22v7.41c-0.04,2.84-2.35,5.12-5.19,5.12c-2.87,0-5.19-2.32-5.19-5.19v-3.22h3.97v3.18
	c0,0.67,0.55,1.22,1.23,1.22s1.23-0.55,1.23-1.22v-7.5c0.1-2.78,2.38-5.01,5.18-5.01c2.82,0,5.1,2.24,5.18,5.04v1.64l-2.36,0.7
	l-1.59-0.74v-1.43C431.01,228.64,430.46,228.09,429.78,228.09z M430,217c-8.84,0-16,7.16-16,16s7.16,16,16,16s16-7.16,16-16
	S438.84,217,430,217z"/>
<path style="fill:#CB1F27;" d="M370,217c-8.84,0-16,7.16-16,16c0,6.55,3.94,12.18,9.58,14.65c-0.05-1.11-0.01-2.45,0.28-3.67
	l2.05-8.72c0,0-0.51-1.02-0.51-2.53c0-2.37,1.38-4.14,3.09-4.14c1.45,0,2.16,1.09,2.16,2.4c0,1.46-0.94,3.65-1.42,5.68
	c-0.4,1.7,0.86,3.08,2.53,3.08c3.03,0,5.07-3.89,5.07-8.51c0-3.5-2.36-6.13-6.65-6.13c-4.86,0-7.88,3.62-7.88,7.66
	c0,1.4,0.41,2.38,1.05,3.14c0.3,0.35,0.34,0.49,0.23,0.89l-0.32,1.29c-0.11,0.4-0.44,0.55-0.8,0.4c-2.24-0.91-3.28-3.36-3.28-6.11
	c0-4.55,3.83-10,11.43-10c6.11,0,10.13,4.42,10.13,9.17c0,6.27-3.49,10.96-8.63,10.96c-1.73,0-3.35-0.93-3.91-1.99
	c0,0-0.93,3.68-1.12,4.4c-0.34,1.23-1.01,2.46-1.61,3.42c1.44,0.43,2.96,0.66,4.53,0.66c8.84,0,16-7.16,16-16S378.84,217,370,217z"
	/>
<path style="fill-rule:evenodd;clip-rule:evenodd;" d="M303.14,235.09h-1.2v-3.74c0-0.26,0.23-0.25,0.23-0.25h1.2v3.74
	C303.37,235.1,303.14,235.09,303.14,235.09z M311.76,235.09h-1.2v-3.74c0-0.26,0.22-0.25,0.22-0.25h1.2v3.74
	C311.98,235.1,311.76,235.09,311.76,235.09z M317.79,235.09h-1.2v-3.74c0-0.26,0.23-0.25,0.23-0.25h1.2v3.74
	C318.02,235.1,317.79,235.09,317.79,235.09z M314.87,229.6c0,0-0.22-0.01-0.22,0.25v6.74h3.37v0.9h-3.15c0,0-0.22,0-0.22,0.26v1.24
	h5.12c0,0,0.23,0.01,0.23-0.25v-9.14H314.87z M308.84,229.6c0,0-0.23-0.01-0.23,0.25v6.74h3.37v0.9h-3.14c0,0-0.23,0-0.23,0.26v1.24
	h5.13c0,0,0.23,0.01,0.23-0.25v-9.14H308.84z M306.17,227.01c0,0-0.22-0.01-0.22,0.25v1.25h1.76c0,0,0.22,0,0.22-0.26v-1.24H306.17z
	 M303.59,227.01c0,0-0.22-0.01-0.22,0.25v2.34h-3.15c0,0-0.22-0.01-0.22,0.25v6.74h5.13c0,0,0.22,0.01,0.22-0.25v-9.33H303.59z
	 M305.95,236.59h1.76c0,0,0.22,0.01,0.22-0.25v-6.74h-1.75c0,0-0.23-0.01-0.23,0.25V236.59z M310,249c-8.84,0-16-7.16-16-16
	s7.16-16,16-16s16,7.16,16,16S318.84,249,310,249z"/>
<path style="fill-rule:evenodd;clip-rule:evenodd;fill:#EB7523;" d="M249.83,230.34h-3.5c-0.67,0-1.21-0.55-1.21-1.21
	c0-0.66,0.54-1.21,1.21-1.21h3.5c0.67,0,1.21,0.55,1.21,1.21C251.04,229.79,250.5,230.34,249.83,230.34z M253.44,237.56h-7.11
	c-0.67,0-1.21-0.55-1.21-1.2c0-0.67,0.54-1.2,1.21-1.2h7.11c0.67,0,1.21,0.53,1.21,1.2C254.65,237.01,254.11,237.56,253.44,237.56z
	 M259.8,231.06l-0.17-0.34l-0.28-0.22c-0.37-0.29-2.22,0.02-2.72-0.44c-0.36-0.33-0.41-0.91-0.52-1.71
	c-0.2-1.54-0.33-1.62-0.57-2.14c-0.87-1.86-3.25-3.26-4.88-3.45h-4.41c-3.48,0-6.32,2.84-6.32,6.32v7.37c0,3.47,2.84,6.31,6.32,6.31
	h7.25c3.48,0,6.3-2.84,6.32-6.31l0.04-5.11L259.8,231.06z M250,249c-8.84,0-16-7.16-16-16s7.16-16,16-16s16,7.16,16,16
	S258.84,249,250,249z"/>
<path style="fill-rule:evenodd;clip-rule:evenodd;fill:#237BA5;" d="M199.92,227.67c0.04,0.35,0.07,0.73,0.07,1.14
	c0,1.13-0.21,2.4-0.85,3.99l-3.4,9.83c3.31-1.93,5.54-5.51,5.54-9.62C201.28,231.07,200.78,229.25,199.92,227.67z M190.15,221.88
	c-3.89,0-7.31,1.99-9.3,5.01l0.71,0.02c1.17,0,2.97-0.15,2.97-0.15c0.6-0.03,0.67,0.85,0.07,0.92c0,0-0.6,0.07-1.28,0.11l4.06,12.06
	l2.44-7.31l-1.74-4.75c-0.6-0.04-1.17-0.11-1.17-0.11c-0.6-0.03-0.53-0.95,0.07-0.92c0,0,1.84,0.15,2.94,0.15
	c1.16,0,2.96-0.15,2.96-0.15c0.6-0.03,0.67,0.85,0.07,0.92c0,0-0.6,0.07-1.27,0.11l4.02,11.97l1.12-3.71
	c0.56-1.45,0.84-2.65,0.84-3.6c0-1.38-0.49-2.33-0.92-3.07c-0.56-0.92-1.09-1.7-1.09-2.62c0-1.02,0.78-1.97,1.87-1.97l0.14,0.01
	C195.68,222.98,193.05,221.88,190.15,221.88z M179.01,233.01c0,4.4,2.56,8.21,6.28,10.02l-5.31-14.55
	C179.36,229.86,179.01,231.39,179.01,233.01z M190.15,244.14c1.29,0,2.54-0.22,3.69-0.63c-0.03-0.05-0.05-0.1-0.08-0.15l-3.42-9.38
	l-3.34,9.71C188,243.98,189.05,244.14,190.15,244.14z M190,249c-8.84,0-16-7.16-16-16s7.16-16,16-16s16,7.16,16,16
	S198.84,249,190,249z"/>
<path style="fill-rule:evenodd;clip-rule:evenodd;fill:#3D5D7D;" d="M613.79,181.03v-4.19h-4.15v-3.97h-3.32
	c-0.12,0.97-0.23,1.72-0.34,2.23c-0.11,0.5-0.25,0.93-0.44,1.27c-0.19,0.33-0.45,0.61-0.78,0.82c-0.33,0.22-0.77,0.37-1.3,0.45v3.39
	h2.38v6.35c0,1.75,0.33,3.03,1.01,3.85c0.67,0.82,1.72,1,3.09,1.23c0.79,0.14,1.36,0.19,2.11,0.09c0.92-0.12,1.88-0.38,2.44-0.57
	l0.03-3.49c-0.36,0.33-0.73,0.58-1.11,0.76c-0.37,0.18-0.77,0.27-1.2,0.27c-0.47,0-0.86-0.08-1.16-0.23c-0.3-0.15-0.57-0.4-0.8-0.75
	c-0.24-0.34-0.4-0.83-0.49-1.44c-0.08-0.62-0.12-0.45-0.12-1.48v-4.59H613.79z M610,199c-8.84,0-16-7.16-16-16s7.16-16,16-16
	s16,7.16,16,16S618.84,199,610,199z"/>
<path style="fill-rule:evenodd;clip-rule:evenodd;fill:#057DE5;" d="M424.07,180.87l5.93-3.55l5.93,3.55l-5.93,3.54L424.07,180.87z
	 M440,177.72l-5.88-3.72l-4.12,3.32l-4.12-3.32l-5.88,3.72l4.07,3.15l-4.07,3.15l5.88,3.72l4.12-3.33l4.12,3.33l5.88-3.72
	l-4.07-3.15L440,177.72z M424.12,188.58l5.89,3.42l5.9-3.42v-1.25l-1.77,1.11l-4.13-3.31l-4.13,3.31l-1.76-1.11V188.58z M430,199
	c-8.84,0-16-7.16-16-16s7.16-16,16-16s16,7.16,16,16S438.84,199,430,199z"/>
<path style="fill-rule:evenodd;clip-rule:evenodd;fill:#4B8347;" d="M369.5,171l-9.5,22h8.5v-4.67l-2.33-1.54l0.37-0.52l1.96,1.3
	v-3.68h2.08v2.35l1.92-0.98l0.32,0.58l-2.24,1.15v1.69l3.59-1.74l0.29,0.56l-3.88,1.88V193H379L369.5,171z M370,199
	c-8.84,0-16-7.16-16-16s7.16-16,16-16s16,7.16,16,16S378.84,199,370,199z"/>
<path style="fill-rule:evenodd;clip-rule:evenodd;fill:#DB477F;" d="M319.88,184.7c-0.47,2.72-2.03,5.06-4.22,6.57
	c-0.41-2.41-1.08-4.7-1.89-6.83C315.52,184.22,317.54,184.27,319.88,184.7z M311.8,184.83c0.9,2.3,1.63,4.8,2.02,7.44
	c-1.18,0.48-2.47,0.75-3.82,0.75c-2.29,0-4.39-0.77-6.08-2.06C305.61,188.41,307.97,185.89,311.8,184.83z M311.03,182.99
	c-4.18,1.23-6.79,3.98-8.57,6.6c-1.55-1.76-2.48-4.07-2.48-6.59v-0.32h0.06c3.57,0,7.12-0.24,10.3-1.17
	C310.57,181.99,310.81,182.48,311.03,182.99z M300.25,180.7c0.7-2.98,2.74-5.45,5.44-6.75c1.02,1.36,2.38,3.34,3.71,5.76
	C306.58,180.48,303.43,180.69,300.25,180.7z M311.3,179.07c-1.28-2.38-2.61-4.36-3.66-5.81c0.76-0.18,1.55-0.28,2.36-0.28
	c2.48,0,4.74,0.9,6.49,2.39C315.08,177.09,313.31,178.27,311.3,179.07z M313,182.55c-0.26-0.58-0.52-1.15-0.79-1.7
	c2.15-0.88,4.08-2.17,5.66-4.04c1.29,1.64,2.08,3.68,2.15,5.91C317.32,182.25,315,182.23,313,182.55z M310,171
	c-6.63,0-12,5.37-12,12s5.37,12,12,12s12-5.37,12-12S316.63,171,310,171z M310,199c-8.84,0-16-7.16-16-16s7.16-16,16-16
	s16,7.16,16,16S318.84,199,310,199z"/>
<path style="fill-rule:evenodd;clip-rule:evenodd;fill:#4B81A3;" d="M254,178h2v-2h-2V178z M250,178c-1.12,0-2.14,0.38-2.97,1H242
	v-1c0-1.66,1.34-3,3-3h10c1.66,0,3,1.34,3,3v1h-5.03C252.14,178.38,251.12,178,250,178z M250,180c1.66,0,3,1.34,3,3s-1.34,3-3,3
	s-3-1.34-3-3S248.34,180,250,180z M255,191h-10c-1.66,0-3-1.34-3-3v-8h4.02c-0.63,0.84-1.02,1.87-1.02,3c0,2.76,2.24,5,5,5
	s5-2.24,5-5c0-1.13-0.39-2.16-1.02-3H258v8C258,189.66,256.66,191,255,191z M260,177c0-2.21-1.79-4-4-4h-12c-2.21,0-4,1.79-4,4v12
	c0,2.21,1.79,4,4,4h12c2.21,0,4-1.79,4-4V177z M250,199c-8.84,0-16-7.16-16-16s7.16-16,16-16s16,7.16,16,16S258.84,199,250,199z"/>
<path style="fill-rule:evenodd;clip-rule:evenodd;fill:#E32113;" d="M198.12,181.9l-11.17-7.34c-0.88-0.56-1.95-0.04-1.95,1.06v2.18
	h0.01v11.71H185v0.89c0,1.1,1.07,1.6,1.95,1.04l11.16-7.52C198.98,183.37,199,182.46,198.12,181.9z M190,199c-8.84,0-16-7.16-16-16
	s7.16-16,16-16s16,7.16,16,16S198.84,199,190,199z"/>
<path style="fill-rule:evenodd;clip-rule:evenodd;fill:#619FAD;" d="M610.79,130.05c2.17-1.31,3.33,0.53,2.22,2.6
	c-1.11,2.07-2.12,3.43-2.65,3.43c-0.53,0-0.94-1.39-1.54-3.82c-0.63-2.5-0.63-7.02-3.23-6.5c-2.46,0.48-5.69,4.34-5.69,4.34
	l0.77,1.01c0,0,1.59-1.26,2.12-0.63c0.53,0.63,2.56,8.2,3.23,9.6c0.59,1.22,2.22,2.84,4,1.68c1.79-1.15,7.72-6.22,8.78-12.2
	C619.86,123.59,611.66,124.84,610.79,130.05z M610,149c-8.84,0-16-7.16-16-16s7.16-16,16-16s16,7.16,16,16S618.84,149,610,149z"/>
<path style="fill-rule:evenodd;clip-rule:evenodd;fill:#CF1900;" d="M558.36,131.87c-1.84-0.59-3.16-0.81-3.16-2.25
	c0-1.02,0.8-1.78,1.92-1.78c0.81,0,1.45,0.31,2.02,1.1l1.53-0.77c-0.78-1.35-1.9-2.03-3.46-2.03c-2.39,0-3.87,1.41-3.87,3.53
	c0,2.17,1.45,3.08,4.25,3.98c1.55,0.51,2.47,0.82,2.47,2.12c0,1.32-1.21,2.37-2.97,2.31c-1.79-0.06-2.34-1.02-2.99-2.46
	c-1.05-2.34-2.25-5.09-2.34-5.3c-1.22-2.76-3.63-4.32-6.61-4.32c-3.95,0-7.15,3.13-7.15,7s3.2,7,7.15,7c2.23,0,4.22-1,5.53-2.56
	l-0.92-2.08c-0.87,1.62-2.61,2.73-4.61,2.73c-2.87,0-5.19-2.28-5.19-5.09s2.32-5.08,5.19-5.08c2.12,0,4,1.21,4.75,3.02l2.29,5.09
	l0.26,0.57c0.93,2.11,2.26,3.31,4.76,3.32c2.71,0,4.79-1.72,4.79-4.1C562,133.57,560.85,132.66,558.36,131.87z M550,149
	c-8.84,0-16-7.16-16-16s7.16-16,16-16s16,7.16,16,16S558.84,149,550,149z"/>
<path style="fill-rule:evenodd;clip-rule:evenodd;fill:#373737;" d="M501.86,136.19c-0.25-0.93-0.76-1.69-1.54-2.28
	c-0.9-0.68-1.91-0.95-3.04-0.79c-0.56,0.07-1.07,0.26-1.54,0.56c-0.73,0.46-1.27,1.07-1.63,1.83c-0.24,0.51-0.36,1.04-0.38,1.59
	c-0.01,0.47,0,0.94,0,1.42c0,0.05,0,0.11,0.01,0.16c0.04,0.18,0.18,0.3,0.36,0.32c0.07,0,0.14,0,0.21,0h3.55h3.54h0.2
	c0.22-0.02,0.36-0.15,0.39-0.36l0.01-0.15c0-0.44,0-0.88,0-1.32C501.99,136.84,501.95,136.51,501.86,136.19z M497.86,125
	c-2.05,0-3.75,1.6-3.76,3.64c0,1.95,1.6,3.64,3.75,3.65c2.12,0,3.77-1.63,3.77-3.63C501.62,126.54,499.86,125,497.86,125z
	 M492.92,137.17c0-0.16-0.03-0.32-0.06-0.47c-0.24-1.12-0.85-1.98-1.86-2.57c-0.75-0.43-1.56-0.57-2.42-0.41
	c-0.87,0.15-1.59,0.57-2.16,1.23c-0.62,0.72-0.94,1.56-0.93,2.5v1.06v0.14c0.02,0.2,0.15,0.33,0.36,0.35h0.19h3.16h3.14h0.17
	c0.27-0.01,0.41-0.14,0.41-0.39V137.17z M489.21,126.4c-2.01,0-3.4,1.59-3.39,3.28c-0.01,1.77,1.49,3.28,3.39,3.28
	c1.77,0,3.36-1.37,3.39-3.29C492.56,127.79,491.05,126.39,489.21,126.4z M484.69,137.42c0-0.27-0.05-0.53-0.13-0.78
	c-0.21-0.73-0.62-1.32-1.23-1.78c-0.57-0.43-1.22-0.66-1.94-0.68c-0.39-0.01-0.76,0.06-1.12,0.19c-0.63,0.23-1.14,0.59-1.55,1.11
	c-0.46,0.6-0.72,1.27-0.72,2.02v1.08v0.12c0.02,0.16,0.13,0.27,0.29,0.29c0.07,0.01,0.14,0.01,0.2,0.01h2.85h2.82h0.17
	c0.2,0,0.37-0.13,0.36-0.36v-0.03V137.42z M481.36,127.65c-1.71-0.01-3.06,1.37-3.07,2.95c0,1.48,1.2,2.96,3.05,2.96
	c1.84,0.01,3.08-1.47,3.05-2.95C484.42,129.05,483.07,127.66,481.36,127.65z M490,149c-8.84,0-16-7.16-16-16s7.16-16,16-16
	s16,7.16,16,16S498.84,149,490,149z"/>
<path style="fill-rule:evenodd;clip-rule:evenodd;fill:#005987;" d="M439,132.44c0-1.42-0.49-2.5-1.35-3.22
	c-1.03-0.86-2.04-1.28-3.51-1.28c-0.71,0-1.18,0.11-1.86,0.34c-0.69,0.24-1.43,0.72-2.28,1.31v-1.6h-3.27V140h3.26v-4.36
	c0-1.28,0.05-2.12,0.16-2.5c0.21-0.74,0.58-1.32,1.12-1.74c0.54-0.42,1.19-0.63,1.94-0.63c0.58,0,1.06,0.13,1.46,0.38
	c0.39,0.25,0.67,0.62,0.83,1.11c0.16,0.48,0.24,1.46,0.24,2.93V140H439V132.44z M424.27,127.99H421V140h3.27V127.99z M423.79,124.47
	c-0.32-0.31-0.71-0.47-1.16-0.47c-0.44,0-0.83,0.15-1.15,0.46c-0.31,0.31-0.47,0.68-0.47,1.11c0,0.45,0.16,0.83,0.48,1.15
	c0.32,0.31,0.71,0.47,1.16,0.47c0.45,0,0.83-0.15,1.14-0.46c0.32-0.31,0.48-0.69,0.48-1.13
	C424.27,125.16,424.11,124.78,423.79,124.47z M430,149c-8.84,0-16-7.16-16-16s7.16-16,16-16s16,7.16,16,16S438.84,149,430,149z"/>
<path style="fill-rule:evenodd;clip-rule:evenodd;fill:#D94935;" d="M361.85,140.54c1.43-0.5,3.28-0.57,3.59-0.57
	c0.34,0,0.51,0,0.79,0.03c2.6,1.92,3.72,2.87,3.72,4.68c0,1.98-1.42,3.48-4.09,3.77c-2.63-0.7-5-2.06-6.91-3.89
	c-0.01-0.12-0.05-0.24-0.05-0.37C358.9,141.67,361.09,140.82,361.85,140.54z M360.61,127.95c0-0.92,0.18-1.88,0.76-2.62
	c0.55-0.71,1.5-1.17,2.39-1.17c2.84,0,4.31,3.97,4.31,6.52c0,0.64-0.07,1.77-0.85,2.59c-0.55,0.57-1.47,0.99-2.33,0.99
	C361.95,134.26,360.61,130.33,360.61,127.95z M380.91,126h-3v-3h-2v3h-3v2h3v3h2v-3h3V126z M370,149.01c-0.57,0-1.14-0.03-1.69-0.09
	c2.57-1.26,3.94-3.44,3.94-5.62c0-2.45-1.37-3.65-2.88-4.96l-1.23-1c-0.37-0.31-0.89-0.74-0.89-1.52c0-0.78,0.52-1.28,0.96-1.74
	c1.44-1.17,2.87-2.41,2.87-5.03c0-2.69-1.64-4.11-2.43-4.78h2.13l2.18-1.28h-7.04c-1.85,0-4.17,0.28-6.13,1.95
	c-1.47,1.31-2.19,3.12-2.19,4.75c0,2.76,2.06,5.56,5.68,5.56c0.35,0,0.72-0.03,1.1-0.07c-0.17,0.43-0.34,0.78-0.34,1.39
	c0,1.09,0.54,1.77,1.02,2.41c-1.54,0.1-4.41,0.28-6.53,1.63c-0.73,0.44-1.27,0.97-1.67,1.51c-1.8-2.59-2.86-5.72-2.86-9.12
	c0-8.83,7.16-16,16-16s16,7.17,16,16C386,141.84,378.84,149.01,370,149.01z"/>
<path style="fill-rule:evenodd;clip-rule:evenodd;fill:#557DEF;" d="M311.04,136.1c2.01,1.43,2.89,2.14,2.89,3.49
	c0,1.65-1.35,2.86-3.9,2.86c-2.83,0-4.66-1.35-4.66-3.23s1.7-2.52,2.28-2.73c1.11-0.37,2.54-0.42,2.78-0.42
	C310.69,136.07,310.83,136.07,311.04,136.1z M310.01,131.8c-2.28,0-3.32-2.94-3.32-4.71c0-0.69,0.14-1.41,0.59-1.96
	c0.42-0.53,1.16-0.88,1.85-0.88c2.2,0,3.34,2.97,3.34,4.88c0,0.47-0.05,1.32-0.66,1.93C311.38,131.48,310.67,131.8,310.01,131.8z
	 M310.8,123.38c-1.43,0-3.23,0.21-4.74,1.45c-1.14,0.98-1.7,2.34-1.7,3.56c0,2.06,1.59,4.16,4.4,4.16c0.27,0,0.56-0.03,0.85-0.06
	c-0.13,0.32-0.27,0.58-0.27,1.04c0,0.82,0.43,1.32,0.8,1.8c-1.19,0.08-3.42,0.21-5.06,1.22c-1.57,0.92-2.04,2.27-2.04,3.23
	c0,1.96,1.85,3.79,5.69,3.79c4.56,0,6.97-2.52,6.97-5.01c0-1.83-1.06-2.73-2.22-3.71l-0.96-0.74c-0.29-0.24-0.69-0.56-0.69-1.14
	s0.4-0.95,0.75-1.3c1.11-0.87,2.22-1.8,2.22-3.76c0-2.02-1.27-3.08-1.88-3.58h1.64l1.7-0.95H310.8z M310.1,149.01
	c-8.83,0-15.99-7.16-15.99-16c0-8.83,7.16-16,15.99-16c8.84,0,16,7.17,16,16C326.1,141.85,318.94,149.01,310.1,149.01z"/>
<path style="fill-rule:evenodd;clip-rule:evenodd;fill:#4D9DDB;" d="M259.4,125.61c-0.71,0.46-1.5,0.8-2.35,0.98
	c-0.67-0.79-1.63-1.28-2.69-1.28c-2.04,0-3.69,1.81-3.69,4.04c0,0.32,0.03,0.63,0.09,0.92c-3.07-0.17-5.79-1.78-7.61-4.22
	c-0.32,0.6-0.5,1.29-0.5,2.03c0,1.4,0.65,2.64,1.64,3.36c-0.6-0.02-1.17-0.2-1.67-0.5v0.05c0,1.96,1.27,3.59,2.96,3.96
	c-0.31,0.09-0.64,0.14-0.97,0.14c-0.24,0-0.47-0.02-0.7-0.07c0.47,1.6,1.84,2.77,3.45,2.8c-1.26,1.09-2.85,1.73-4.58,1.73
	c-0.3,0-0.6-0.02-0.88-0.05c1.63,1.14,3.57,1.81,5.66,1.81c6.79,0,10.5-6.15,10.5-11.49l-0.01-0.52c0.73-0.57,1.35-1.28,1.85-2.1
	c-0.67,0.33-1.38,0.54-2.12,0.64C258.54,127.34,259.12,126.55,259.4,125.61z M250,149c-8.84,0-16-7.16-16-16s7.16-16,16-16
	s16,7.16,16,16S258.84,149,250,149z"/>
<path style="fill-rule:evenodd;clip-rule:evenodd;fill:#4363B1;" d="M194,127h2v-4h-3.87c-3.88,0-3.13,4-3.13,4v3h-2v4h2v9h4v-9h2
	l1-4h-3v-2C193,127.18,194,127,194,127z M190,149c-8.84,0-16-7.16-16-16s7.16-16,16-16s16,7.16,16,16S198.84,149,190,149z"/>
<g>
	<path style="fill-rule:evenodd;clip-rule:evenodd;fill:#C10300;" d="M260,375h-12h-6v18h6v-6h6v-6h6V375z M250,399
		c-8.84,0-16-7.16-16-16s7.16-16,16-16s16,7.16,16,16S258.84,399,250,399z"/>
	<polygon style="opacity:0.1;fill-rule:evenodd;clip-rule:evenodd;fill:#C10300;" points="254,381 254,387 248,387 248,381 248,375 
		260,375 260,381 	"/>
	<rect x="248" y="381" style="opacity:0.1;fill-rule:evenodd;clip-rule:evenodd;fill:#C10300;" width="6" height="6"/>
</g>
<g>
	<path style="fill-rule:evenodd;clip-rule:evenodd;fill:#E7E7E7;" d="M550.01,178.4l-4.57,3.32l1.75,5.37h5.65l1.74-5.37
		L550.01,178.4z M550,199c-8.84,0-16-7.16-16-16s7.16-16,16-16s16,7.16,16,16S558.84,199,550,199z"/>
	<path style="fill:#9B479F;" d="M536,182.96c0.19-4.6,1.96-8.41,5.68-11.25c0.46-0.35,0.8-0.36,1.27-0.01
		c1.52,1.15,3.07,2.24,4.59,3.37c0.95,0.7,0.93,1.61-0.05,2.32c-3.04,2.22-6.08,4.43-9.12,6.65c-0.54,0.39-1.1,0.77-1.63,1.17
		c-0.36,0.28-0.53,0.25-0.6-0.23C536.04,184.31,536.02,183.64,536,182.96z"/>
	<path style="fill:#4389FD;" d="M547.71,196.81c-1.7-0.28-3.31-0.86-4.79-1.75c-2.97-1.81-5.07-4.33-6.22-7.63
		c-0.18-0.54-0.1-0.87,0.39-1.22c1.51-1.05,2.97-2.17,4.48-3.24c1.11-0.79,1.93-0.56,2.37,0.74c1.16,3.46,2.27,6.93,3.39,10.4
		c0.25,0.77,0.48,1.53,0.71,2.3C548.14,196.71,548.09,196.89,547.71,196.81z"/>
	<path style="fill:#0DAB63;" d="M550.06,196.99c-0.51,0.06-0.78-0.16-0.93-0.66c-0.58-1.85-1.2-3.68-1.79-5.53
		c-0.33-1.04,0.21-1.78,1.3-1.78h13.29c0.63,0,0.69,0.08,0.37,0.62c-2.51,4.34-6.24,6.78-11.24,7.26l-0.5,0.05L550.06,196.99z"/>
	<path style="fill:#FFD34D;" d="M559.49,187.92c-0.89-0.04-1.99,0.07-3.09-0.06c-0.98-0.11-1.42-0.74-1.13-1.73
		c0.38-1.3,0.83-2.59,1.25-3.88l2.88-8.81c0.21-0.65,0.27-0.68,0.72-0.18c3.66,4.11,4.75,8.82,3.19,14.12
		c-0.12,0.41-0.35,0.55-0.77,0.55C561.59,187.9,560.64,187.92,559.49,187.92z"/>
	<path style="fill:#E1493F;" d="M550.67,169c2.37,0.05,5.1,0.88,7.55,2.6c0.42,0.29,0.52,0.56,0.35,1.06
		c-0.63,1.83-1.2,3.68-1.81,5.52c-0.35,1.05-1.32,1.37-2.2,0.71c-3.52-2.59-7.11-5.09-10.57-7.76c-0.64-0.49-0.64-0.52,0.11-0.86
		C545.99,169.41,547.98,168.99,550.67,169z"/>
</g>
<g>
	<path style="fill-rule:evenodd;clip-rule:evenodd;fill:#F1EDEB;" d="M490,167c8.84,0,16,7.16,16,16s-7.16,16-16,16s-16-7.16-16-16
		S481.16,167,490,167z"/>
	<circle style="fill-rule:evenodd;clip-rule:evenodd;fill:#2757AF;" cx="484" cy="183" r="5"/>
	<circle style="fill-rule:evenodd;clip-rule:evenodd;fill:#E30761;" cx="496" cy="183" r="5"/>
</g>
</svg>
